<?xml version="1.0" encoding="UTF-8" standalone="no"?>
<!DOCTYPE svg PUBLIC "-//W3C//DTD SVG 1.1//EN" "http://www.w3.org/Graphics/SVG/1.1/DTD/svg11.dtd">
<!-- Created with Vectornator (http://vectornator.io/) -->
<svg height="100%" stroke-miterlimit="10" style="fill-rule:nonzero;clip-rule:evenodd;stroke-linecap:round;stroke-linejoin:round;" version="1.1" viewBox="0 0 2898.26 2726.47" width="100%" xml:space="preserve" xmlns="http://www.w3.org/2000/svg" xmlns:vectornator="http://vectornator.io" xmlns:xlink="http://www.w3.org/1999/xlink">
<defs/>
<g id="Layer-1" vectornator:layerName="Layer 1">
<path d="M2059.89 801.478C2056.55 741.542 2035.55 685.616 2013.88 628.198C2002.09 632.311 1991.34 636.12 1980.55 639.815C1857.55 681.937 1749.79 745.967 1662.97 839.933C1657.76 845.57 1653.68 844.319 1647.44 842.241C1593.18 824.174 1539.41 802.445 1481.89 796.58C1385.57 786.757 1294.64 812.227 1204.5 842.241C1198.26 844.319 1194.18 845.57 1188.97 839.933C1102.15 745.967 994.389 681.937 871.387 639.815C860.598 636.12 849.851 632.311 838.061 628.198C816.388 685.616 795.39 741.542 792.05 801.478C785.305 922.53 793.828 1043.15 804.192 1163.75C815.056 1290.17 852.713 1410.14 895.319 1529.44C917.691 1592.09 965.207 1629.19 1021.35 1661.58C1096.08 1704.69 1169.82 1749.37 1243.35 1794.33C1271 1811.24 1297.64 1829.62 1324.4 1847.8C1357.6 1870.35 1393.68 1878.65 1434.23 1878.66C1470.13 1878.66 1498.06 1868.45 1526.8 1848.34C1553.53 1829.65 1580.72 1811.37 1608.59 1794.33C1682.11 1749.37 1755.86 1704.69 1830.59 1661.58C1886.73 1629.19 1934.25 1592.09 1956.62 1529.44C1999.23 1410.14 2036.88 1290.17 2047.75 1163.75C2058.11 1043.15 2066.63 922.53 2059.89 801.478" fill="#000000" fill-rule="nonzero" opacity="1" stroke="none" vectornator:layerName="path"/>
<g opacity="1">
<path d="M1435.66 1151.08C1430.32 1164.79 1424.87 1178.44 1419.69 1192.21C1416.92 1199.55 1414.27 1206.94 1411.56 1214.3C1408.87 1221.62 1406.3 1228.96 1403.87 1236.37C1403.11 1238.7 1402.25 1241.03 1401.59 1243.4C1401.05 1245.36 1400.7 1247.43 1400.28 1249.43C1400 1250.75 1399.6 1252.09 1399.44 1253.43C1399.31 1254.42 1399.49 1255.44 1399.56 1256.43C1399.64 1257.43 1399.74 1258.46 1399.81 1259.46C1400.07 1262.82 1400.41 1266.15 1400.81 1269.49C1401.89 1278.52 1402.96 1287.54 1403.91 1296.58C1404.92 1306.28 1405.96 1315.97 1406.94 1325.68C1408.96 1345.73 1410.72 1365.83 1412.59 1385.9C1414.78 1409.3 1416.69 1432.7 1418.69 1456.12C1424.64 1525.66 1430.1 1595.25 1435.66 1664.83C1441.21 1595.25 1446.68 1525.66 1452.62 1456.12C1454.63 1432.7 1456.53 1409.3 1458.72 1385.9C1460.6 1365.83 1462.35 1345.73 1464.37 1325.68C1465.39 1315.64 1466.47 1305.62 1467.53 1295.58C1468.49 1286.54 1469.55 1277.52 1470.62 1268.49C1471.02 1265.15 1471.34 1261.81 1471.59 1258.46C1471.72 1256.84 1472.08 1255.05 1471.87 1253.43C1471.71 1252.09 1471.31 1250.75 1471.03 1249.43C1470.61 1247.43 1470.3 1245.36 1469.75 1243.4C1469 1240.69 1467.97 1238.03 1467.09 1235.37C1464.77 1228.29 1462.32 1221.29 1459.75 1214.3C1457.04 1206.95 1454.39 1199.55 1451.62 1192.21C1446.44 1178.44 1440.99 1164.79 1435.66 1151.08Z" fill="#fddf19" fill-rule="nonzero" opacity="1" stroke="none"/>
<path d="M1827.58 1170.4C1826.64 1170.33 1825.71 1170.59 1824.8 1170.81C1823.38 1171.15 1821.96 1171.49 1820.55 1171.84C1817.63 1172.56 1814.78 1173.53 1811.92 1174.46C1808.96 1175.44 1806 1176.43 1803.05 1177.43C1797.39 1179.35 1791.7 1181.21 1786.05 1183.15C1773.22 1187.55 1760.45 1192.15 1747.77 1196.96C1746.03 1197.62 1722.91 1206.85 1713.73 1210.71C1698.83 1216.98 1684.02 1223.45 1669.7 1230.99C1656.72 1237.84 1644.13 1245.37 1631.89 1253.46C1614.61 1264.89 1598.11 1277.42 1582.64 1291.21C1572.42 1300.33 1562.64 1309.97 1553.48 1320.15C1548.52 1325.67 1543.56 1331.32 1539.23 1337.37C1544.88 1332.65 1551.04 1328.49 1557.17 1324.43C1567.06 1317.9 1577.32 1311.9 1587.8 1306.37C1616.46 1291.25 1646.94 1279.66 1678.52 1272.34C1690.34 1269.6 1702.31 1267.51 1714.33 1265.84C1715.16 1265.72 1715.81 1266.47 1716.04 1267.71C1716.29 1269 1716.45 1270.82 1716.61 1272.12C1716.91 1274.55 1717.32 1276.96 1717.73 1279.37C1718.98 1286.62 1720.07 1293.85 1720.95 1301.15C1721.5 1305.69 1722.08 1310.25 1722.52 1314.81C1723.33 1323.34 1723.81 1331.9 1724.17 1340.46C1724.46 1347.34 1724.69 1354.24 1724.55 1361.12C1724.46 1365.19 1724.15 1369.25 1723.8 1373.31C1722.81 1384.7 1721.17 1396.01 1719.27 1407.28C1716.42 1424.12 1712.76 1440.8 1708.77 1457.4C1704.96 1473.23 1700.77 1489.01 1696.36 1504.68C1693.37 1515.3 1690.32 1525.91 1687.02 1536.43C1693.01 1525.6 1698.73 1514.61 1704.36 1503.59C1712.02 1488.6 1719.43 1473.49 1726.48 1458.21C1733.11 1443.86 1739.55 1429.41 1745.45 1414.74C1750.32 1402.65 1754.9 1390.42 1758.67 1377.93C1763.51 1361.91 1766.83 1345.42 1769.61 1328.93C1772.05 1314.42 1774.13 1299.89 1776.11 1285.31C1776.73 1280.75 1777.46 1276.17 1777.77 1271.59C1777.84 1270.49 1777.92 1269.41 1777.98 1268.31C1778.02 1267.67 1778.12 1266.69 1778.16 1266.03C1778.22 1264.76 1778.26 1260.26 1779.24 1260.22C1788.93 1259.87 1798.62 1259.75 1808.33 1259.96C1814.9 1260.11 1821.46 1260.46 1828.02 1260.9C1830.2 1261.05 1832.36 1261.04 1834.55 1261.06C1835.79 1261.07 1837.13 1261.26 1838.33 1260.84C1839.47 1260.44 1840.73 1259.66 1841.83 1259.12C1842.97 1258.56 1844.18 1258.04 1845.27 1257.37C1847.15 1256.21 1848.91 1254.79 1850.73 1253.53C1855.9 1249.94 1860.99 1246.28 1866.08 1242.59C1873.91 1236.91 1881.92 1231.46 1889.92 1226.03C1897.45 1220.91 1905.06 1215.81 1913.05 1211.43C1907.69 1207.67 1902.06 1204.27 1896.42 1200.93C1891.19 1197.83 1885.89 1194.79 1880.52 1191.93C1873.6 1188.26 1866.51 1184.94 1859.42 1181.62C1853.59 1178.89 1847.63 1176.45 1841.61 1174.18C1839.78 1173.49 1828.55 1170.47 1827.58 1170.4Z" fill="#fddf19" fill-rule="nonzero" opacity="1" stroke="none"/>
<path d="M1439.46 969.805C1428.64 976.288 1417.74 982.632 1407.11 989.651C1404.98 991.06 1402.82 992.482 1400.76 994.064C1399.87 994.746 1398.98 995.399 1398.19 996.251C1397.62 996.873 1396.9 997.506 1396.73 998.428C1396.6 999.196 1397.15 999.89 1397.43 1000.58C1398.33 1002.83 1399.58 1004.9 1400.6 1007.07C1403.58 1013.38 1406.24 1019.9 1408.82 1026.49C1410.23 1030.08 1411.68 1033.66 1413.03 1037.3C1421.72 1060.76 1429.54 1084.74 1437.49 1108.63C1446.12 1084.58 1454.61 1060.42 1463.97 1036.77C1465.42 1033.11 1466.97 1029.5 1468.49 1025.87C1471.57 1018.48 1474.71 1011.1 1478.35 1004.09C1479.11 1002.64 1479.98 1001.26 1480.63 999.738C1480.93 999.04 1481.51 998.324 1481.4 997.558C1481.26 996.639 1480.54 996.01 1479.98 995.4C1479.21 994.563 1478.33 993.915 1477.46 993.252C1475.45 991.711 1473.35 990.365 1471.25 988.999C1460.82 982.196 1450.11 976.069 1439.46 969.805Z" fill="#fddf19" fill-rule="nonzero" opacity="1" stroke="none"/>
<path d="M1244.37 1077.07C1237.05 1080.09 1230.1 1083.83 1223.31 1087.6C1213.15 1093.24 1203.37 1099.39 1194.06 1105.97C1177.43 1117.73 1162 1130.67 1148.4 1144.91C1144.72 1148.76 1141.02 1152.65 1137.59 1156.66C1134.31 1160.49 1131.35 1164.5 1128.5 1168.57C1123.33 1175.91 1118.36 1183.32 1113.53 1190.82C1113.24 1191.26 1112.98 1191.72 1112.68 1192.16C1103.92 1188.94 1095.17 1185.69 1086.34 1182.66C1080.69 1180.72 1074.97 1178.86 1069.31 1176.94C1065.87 1175.77 1062.45 1174.63 1059 1173.5C1056.62 1172.73 1054.23 1171.95 1051.81 1171.35C1050.4 1171 1045.72 1169.84 1044.78 1169.91C1044.29 1169.95 1021.8 1176.45 1003.4 1185.63C997.506 1188.57 980.309 1197.84 974.652 1201.22C969.462 1204.32 964.259 1207.46 959.309 1210.94C968.344 1215.9 976.945 1221.74 985.434 1227.57C992.752 1232.59 1000.06 1237.6 1007.25 1242.82C1009.24 1244.27 1011.2 1245.76 1013.21 1247.19C1016.36 1249.42 1019.56 1251.58 1022.71 1253.78C1024.17 1254.8 1025.57 1255.94 1027.09 1256.88C1028.54 1257.77 1030.19 1258.44 1031.71 1259.19C1032.5 1259.58 1033.23 1260.06 1034.06 1260.35C1035.26 1260.76 1036.57 1260.61 1037.81 1260.6C1039.99 1260.58 1042.16 1260.56 1044.34 1260.41C1050.89 1259.97 1057.46 1259.61 1064.03 1259.47C1073.28 1259.27 1082.54 1259.41 1091.78 1259.72C1092 1263.56 1092.16 1267.42 1092.18 1267.75C1092.26 1268.85 1092.35 1269.93 1092.43 1271.03C1092.8 1276.04 1093.66 1281.04 1094.37 1286C1096.4 1300.22 1098.6 1314.39 1101.09 1328.53C1104.01 1345.08 1107.46 1361.63 1112.43 1377.69C1116.3 1390.19 1120.99 1402.43 1125.96 1414.53C1131.98 1429.18 1138.57 1443.58 1145.31 1457.91C1152.76 1473.76 1160.59 1489.45 1168.68 1504.97C1174.1 1515.36 1179.59 1525.73 1185.34 1535.94C1181.91 1524.77 1178.78 1513.5 1175.71 1502.22C1171.61 1487.13 1167.7 1471.96 1164.15 1456.72C1160.28 1440.09 1156.78 1423.4 1154.06 1406.53C1152.24 1395.27 1150.66 1383.94 1149.78 1372.57C1149.46 1368.52 1149.2 1364.46 1149.15 1360.41C1149.08 1353.55 1149.36 1346.69 1149.71 1339.85C1150.15 1331.3 1150.72 1322.76 1151.62 1314.25C1152.1 1309.71 1152.68 1305.19 1153.28 1300.66C1154.23 1293.38 1155.42 1286.13 1156.75 1278.91C1157.08 1277.08 1157.4 1275.24 1157.68 1273.41C1157.83 1272.48 1157.96 1271.56 1158.09 1270.63C1158.16 1270.1 1158.59 1267.75 1158.96 1265.44C1170.68 1267.1 1182.31 1269.17 1193.84 1271.85C1225.42 1279.17 1255.93 1290.76 1284.59 1305.88C1295.49 1311.63 1306.12 1317.88 1316.37 1324.72C1322.09 1328.54 1327.84 1332.46 1333.12 1336.88C1328.51 1330.42 1323.2 1324.4 1317.87 1318.53C1309 1308.76 1299.57 1299.51 1289.71 1290.72C1274.25 1276.93 1257.74 1264.4 1240.46 1252.97C1228.23 1244.87 1215.64 1237.35 1202.65 1230.5C1190.77 1224.24 1178.54 1218.78 1166.21 1213.5C1166.23 1213.4 1166.26 1213.3 1166.28 1213.19C1166.48 1212.05 1166.64 1210.94 1166.75 1209.78C1167.02 1206.67 1167.39 1203.55 1167.78 1200.44C1168.46 1194.91 1169.51 1189.39 1170.78 1183.94C1171.68 1180.05 1172.68 1176.12 1174.03 1172.32C1177.12 1163.58 1181.21 1155.12 1185.78 1146.85C1194.14 1131.69 1204.45 1117.38 1216.37 1104C1221.87 1097.83 1227.67 1091.84 1233.84 1086.13C1237.21 1083.01 1240.66 1079.91 1244.37 1077.07Z" fill="#fddf19" fill-rule="nonzero" opacity="1" stroke="none"/>
</g>
<path d="M1696.81 1848.95L1728.69 1957.58L1037.59 2014.42C1015.51 2016.24 999.091 2035.62 1000.91 2057.7L1010.63 2176.14C1012.44 2198.22 1031.82 2214.64 1053.91 2212.83L1933.81 2140.45C1955.9 2138.64 1972.32 2119.26 1970.5 2097.17L1960.78 1978.76C1958.97 1956.68 1939.59 1940.23 1917.5 1942.05L1798.81 1951.8L1696.81 1848.95Z" fill="#000000" fill-rule="nonzero" opacity="1" stroke="none"/>
<g opacity="1">
<path d="M1193.72 2075.05C1193.94 2077.63 1193.35 2079.68 1191.95 2081.2C1190.55 2082.71 1189.18 2083.9 1187.86 2084.76C1185.94 2086.22 1183.77 2087.41 1181.34 2088.32C1178.91 2089.22 1176.31 2089.8 1173.54 2090.04L1171.46 2090.22L1170.33 2077.07L1123.54 2081.1L1127.04 2121.66L1173.96 2117.61L1172.75 2103.49L1195.72 2101.51L1196.91 2115.21C1197.12 2117.7 1196.75 2119.92 1195.81 2121.86C1194.86 2123.8 1193.49 2125.45 1191.7 2126.82C1189.91 2128.18 1187.75 2129.27 1185.22 2130.1C1182.69 2130.92 1179.99 2131.45 1177.13 2131.7L1125.78 2136.13C1123.01 2136.37 1120.35 2136.25 1117.8 2135.77C1115.25 2135.3 1112.97 2134.52 1110.97 2133.44C1108.98 2132.35 1107.35 2130.98 1106.09 2129.33C1104.83 2127.67 1104.1 2125.73 1103.91 2123.52L1100.39 2082.68C1100.21 2080.65 1100.61 2078.74 1101.57 2076.93C1102.53 2075.13 1103.9 2073.53 1105.68 2072.12C1107.47 2070.71 1109.57 2069.53 1112 2068.57C1114.43 2067.62 1117.07 2067.02 1119.93 2066.77L1171.15 2062.35C1177.61 2061.8 1182.88 2062.6 1186.97 2064.75C1191.06 2066.91 1193.31 2070.34 1193.72 2075.05Z" fill="#fddf19" fill-rule="nonzero" opacity="1" stroke="none"/>
<path d="M1304.28 2120.73L1301.92 2093.46L1255.14 2097.5L1256.07 2108.29C1256.37 2111.71 1256.08 2114.38 1255.23 2116.32C1254.37 2118.25 1252.94 2119.95 1250.93 2121.43C1249.09 2122.79 1246.85 2123.94 1244.18 2124.87C1241.52 2125.8 1238.71 2126.39 1235.76 2126.64L1234.38 2126.76L1229.71 2072.64C1229.47 2069.96 1229.83 2067.63 1230.78 2065.64C1231.72 2063.66 1233.11 2061.96 1234.94 2060.54C1236.77 2059.13 1238.93 2058.01 1241.41 2057.2C1243.9 2056.38 1246.52 2055.85 1249.29 2055.61L1321.69 2049.36L1327.67 2118.71L1304.28 2120.73ZM1299.55 2065.91L1252.76 2069.95L1253.87 2082.82L1300.66 2078.79L1299.55 2065.91Z" fill="#fddf19" fill-rule="nonzero" opacity="1" stroke="none"/>
<path d="M1442.08 2108.84L1438.4 2066.2L1413.53 2099.59L1383.03 2070.98L1386.71 2113.61L1363.6 2115.61L1357.61 2046.26L1362.04 2045.88C1363.24 2045.78 1364.79 2045.67 1366.68 2045.55C1368.58 2045.43 1370.59 2045.56 1372.71 2045.93C1374.84 2046.31 1377 2046.87 1379.2 2047.61C1381.41 2048.35 1383.46 2049.56 1385.38 2051.26L1411.33 2074.12L1432.71 2047.17C1434.22 2045.18 1435.99 2043.64 1438.03 2042.53C1440.07 2041.42 1442.13 2040.5 1444.21 2039.76C1446.28 2039.03 1448.29 2038.55 1450.22 2038.34C1452.15 2038.13 1453.72 2037.97 1454.92 2037.86L1459.21 2037.49L1465.2 2106.84L1442.08 2108.84Z" fill="#fddf19" fill-rule="nonzero" opacity="1" stroke="none"/>
<path d="M1590.52 2053.77C1590.94 2058.66 1588.91 2062.54 1584.41 2065.39C1579.92 2068.24 1573.7 2070.01 1565.76 2070.69L1531.16 2073.68C1531.03 2072.2 1531.14 2070.54 1531.5 2068.7C1531.85 2066.85 1532.5 2065.2 1533.44 2063.72C1534.38 2062.24 1535.69 2060.95 1537.35 2059.83C1539.02 2058.71 1541.06 2058.04 1543.46 2057.83L1567.27 2055.78L1566.16 2042.91L1519.51 2046.93L1522.84 2085.55C1523.4 2092.01 1521.8 2096.61 1518.04 2099.35C1516.11 2100.73 1513.87 2101.71 1511.32 2102.3C1508.77 2102.9 1506.15 2103.31 1503.48 2103.54L1501.12 2103.74L1495.14 2034.39L1566.98 2028.19C1573.25 2027.65 1578.46 2028.46 1582.59 2030.61C1586.73 2032.76 1589 2036.19 1589.41 2040.9L1590.52 2053.77Z" fill="#fddf19" fill-rule="nonzero" opacity="1" stroke="none"/>
<path d="M1694.98 2059.54L1650.83 2063.35L1651.95 2076.36L1721.85 2070.33C1722.07 2072.82 1721.72 2075.01 1720.82 2076.9C1719.91 2078.79 1718.54 2080.4 1716.7 2081.72C1714.86 2083.04 1712.7 2084.09 1710.21 2084.86C1707.72 2085.63 1705 2086.15 1702.04 2086.4L1650.83 2090.82C1647.97 2091.07 1645.26 2090.95 1642.71 2090.48C1640.16 2090 1637.88 2089.22 1635.89 2088.14C1633.89 2087.05 1632.26 2085.68 1631 2084.03C1629.74 2082.37 1629.02 2080.43 1628.82 2078.22L1625.32 2037.66C1625.14 2035.54 1625.53 2033.55 1626.48 2031.7C1627.44 2029.86 1628.81 2028.23 1630.59 2026.82C1632.38 2025.41 1634.48 2024.23 1636.91 2023.27C1639.34 2022.32 1641.94 2021.73 1644.71 2021.49L1696.06 2017.05C1702.43 2016.51 1707.63 2017.31 1711.68 2019.47C1715.72 2021.63 1717.95 2025.07 1718.35 2029.77L1648.45 2035.81L1649.56 2048.68L1693.72 2044.87L1694.98 2059.54Z" fill="#fddf19" fill-rule="nonzero" opacity="1" stroke="none"/>
<path d="M1826.16 2075.83L1789.44 2036.61L1825.43 2033.5L1824.32 2020.63L1777.4 2024.68L1780.7 2063.02C1781.27 2069.57 1779.67 2074.17 1775.9 2076.82C1773.97 2078.2 1771.73 2079.18 1769.18 2079.77C1766.63 2080.36 1764.02 2080.78 1761.34 2081.01L1758.99 2081.21L1753.03 2012.14L1825 2005.93C1831.46 2005.37 1836.69 2006.17 1840.69 2008.34C1844.69 2010.5 1846.89 2013.94 1847.3 2018.65L1848.43 2031.8C1848.81 2036.22 1847.38 2039.83 1844.14 2042.62C1840.89 2045.41 1836.1 2047.22 1829.75 2048.05L1854.25 2073.41L1826.16 2075.83Z" fill="#fddf19" fill-rule="nonzero" opacity="1" stroke="none"/>
</g>
</g>
</svg>
