<?xml version="1.0" encoding="UTF-8" standalone="no"?>
<!DOCTYPE svg PUBLIC "-//W3C//DTD SVG 1.1//EN" "http://www.w3.org/Graphics/SVG/1.1/DTD/svg11.dtd">
<!-- Created with Vectornator (http://vectornator.io/) -->
<svg height="100%" stroke-miterlimit="10" style="fill-rule:nonzero;clip-rule:evenodd;stroke-linecap:round;stroke-linejoin:round;" version="1.1" viewBox="0 0 2898.26 2726.47" width="100%" xml:space="preserve" xmlns="http://www.w3.org/2000/svg" xmlns:vectornator="http://vectornator.io" xmlns:xlink="http://www.w3.org/1999/xlink">
<defs>
<filter color-interpolation-filters="sRGB" filterUnits="userSpaceOnUse" height="1375.46" id="Filter" width="1397.65" x="773.342" y="542.873">
<feDropShadow dx="-1.38374e-05" dy="3.76712" flood-color="#191b13" flood-opacity="1" in="SourceGraphic" result="Shadow" stdDeviation="25"/>
</filter>
<filter color-interpolation-filters="sRGB" filterUnits="userSpaceOnUse" height="788.995" id="Filter_2" width="1047.7" x="958.524" y="888.796">
<feDropShadow dx="-1.38374e-05" dy="3.76712" flood-color="#fddf19" flood-opacity="1" in="SourceGraphic" result="Shadow" stdDeviation="18.7931"/>
</filter>
<filter color-interpolation-filters="sRGB" filterUnits="userSpaceOnUse" height="489.012" id="Filter_3" width="1094.9" x="984.457" y="1752.42">
<feDropShadow dx="-1.38374e-05" dy="3.76712" flood-color="#191b13" flood-opacity="1" in="SourceGraphic" result="Shadow" stdDeviation="25"/>
</filter>
<filter color-interpolation-filters="sRGB" filterUnits="userSpaceOnUse" height="99.4985" id="Filter_4" width="122.045" x="1137.38" y="2019.48">
<feDropShadow dx="-0" dy="0" flood-color="#fddf19" flood-opacity="1" in="SourceGraphic" result="Shadow" stdDeviation="5.08562"/>
</filter>
<filter color-interpolation-filters="sRGB" filterUnits="userSpaceOnUse" height="102.827" id="Filter_5" width="123.461" x="1266.67" y="2006.67">
<feDropShadow dx="-0" dy="0" flood-color="#fddf19" flood-opacity="1" in="SourceGraphic" result="Shadow" stdDeviation="5.08562"/>
</filter>
<filter color-interpolation-filters="sRGB" filterUnits="userSpaceOnUse" height="103.543" id="Filter_6" width="133.012" x="1394.65" y="1994.8">
<feDropShadow dx="-0" dy="0" flood-color="#fddf19" flood-opacity="1" in="SourceGraphic" result="Shadow" stdDeviation="5.08562"/>
</filter>
<filter color-interpolation-filters="sRGB" filterUnits="userSpaceOnUse" height="101.138" id="Filter_7" width="120.865" x="1532.17" y="1985.33">
<feDropShadow dx="-0" dy="0" flood-color="#fddf19" flood-opacity="1" in="SourceGraphic" result="Shadow" stdDeviation="5.08562"/>
</filter>
<filter color-interpolation-filters="sRGB" filterUnits="userSpaceOnUse" height="99.4886" id="Filter_8" width="122.063" x="1662.31" y="1974.19">
<feDropShadow dx="-0" dy="0" flood-color="#fddf19" flood-opacity="1" in="SourceGraphic" result="Shadow" stdDeviation="5.08562"/>
</filter>
<filter color-interpolation-filters="sRGB" filterUnits="userSpaceOnUse" height="100.881" id="Filter_9" width="126.656" x="1790.06" y="1963.06">
<feDropShadow dx="-0" dy="0" flood-color="#fddf19" flood-opacity="1" in="SourceGraphic" result="Shadow" stdDeviation="5.08562"/>
</filter>
</defs>
<clipPath id="ArtboardFrame">
<rect height="2726.47" width="2898.26" x="0" y="0"/>
</clipPath>
<g clip-path="url(#ArtboardFrame)" id="Layer-1" vectornator:layerName="Layer 1">
<path d="M-1.89644-7.30775L2902.29-7.30775L2902.29 2746.96L-1.89644 2746.96L-1.89644-7.30775Z" fill="#595f42" fill-rule="nonzero" opacity="1" stroke="none"/>
<path d="M2106.09 774.886C2102.75 714.95 2081.75 659.024 2060.08 601.606C2048.29 605.719 2037.54 609.528 2026.75 613.223C1903.75 655.345 1795.98 719.375 1709.16 813.341C1703.96 818.978 1699.88 817.727 1693.64 815.649C1639.38 797.582 1585.6 775.853 1528.09 769.988C1431.77 760.165 1340.84 785.635 1250.7 815.649C1244.46 817.727 1240.38 818.978 1235.17 813.341C1148.35 719.375 1040.59 655.345 917.585 613.223C906.796 609.528 896.049 605.719 884.259 601.606C862.586 659.024 841.588 714.95 838.248 774.886C831.503 895.938 840.026 1016.55 850.39 1137.16C861.254 1263.58 898.911 1383.55 941.517 1502.85C963.889 1565.49 1011.41 1602.59 1067.55 1634.99C1142.27 1678.1 1216.02 1722.77 1289.55 1767.74C1317.2 1784.65 1343.84 1803.03 1370.6 1821.21C1403.8 1843.76 1439.88 1852.06 1480.42 1852.06C1516.33 1852.06 1544.26 1841.85 1573 1821.75C1599.72 1803.06 1626.92 1784.78 1654.79 1767.74C1728.31 1722.77 1802.06 1678.1 1876.79 1634.99C1932.93 1602.59 1980.45 1565.49 2002.82 1502.85C2045.43 1383.55 2083.08 1263.58 2093.95 1137.16C2104.31 1016.55 2112.83 895.938 2106.09 774.886" fill="#000000" fill-rule="nonzero" filter="url(#Filter)" stroke="none" vectornator:layerName="path" vectornator:shadowAngle="1.5708" vectornator:shadowColor="#191b13" vectornator:shadowOffset="3.76712" vectornator:shadowOpacity="1" vectornator:shadowRadius="50"/>
<g filter="url(#Filter_2)" vectornator:shadowAngle="1.5708" vectornator:shadowColor="#fddf19" vectornator:shadowOffset="3.76712" vectornator:shadowOpacity="1" vectornator:shadowRadius="37.5862">
<path d="M1481.85 1113.29C1476.52 1127 1471.07 1140.65 1465.89 1154.42C1463.12 1161.75 1460.47 1169.15 1457.76 1176.51C1455.07 1183.83 1452.5 1191.16 1450.07 1198.57C1449.31 1200.91 1448.45 1203.24 1447.79 1205.6C1447.24 1207.57 1446.9 1209.64 1446.48 1211.63C1446.2 1212.96 1445.8 1214.3 1445.64 1215.63C1445.51 1216.63 1445.68 1217.64 1445.76 1218.63C1445.84 1219.64 1445.93 1220.66 1446.01 1221.67C1446.27 1225.02 1446.61 1228.35 1447.01 1231.7C1448.09 1240.72 1449.16 1249.75 1450.1 1258.79C1451.12 1268.49 1452.16 1278.18 1453.14 1287.88C1455.16 1307.94 1456.92 1328.04 1458.79 1348.1C1460.98 1371.5 1462.88 1394.91 1464.89 1418.32C1470.83 1487.87 1476.3 1557.46 1481.85 1627.04C1487.41 1557.46 1492.88 1487.87 1498.82 1418.32C1500.83 1394.91 1502.73 1371.5 1504.92 1348.1C1506.79 1328.04 1508.55 1307.94 1510.57 1287.88C1511.58 1277.85 1512.67 1267.82 1513.73 1257.79C1514.68 1248.75 1515.75 1239.72 1516.82 1230.7C1517.22 1227.35 1517.53 1224.02 1517.79 1220.67C1517.92 1219.04 1518.28 1217.26 1518.07 1215.63C1517.91 1214.3 1517.51 1212.96 1517.23 1211.63C1516.81 1209.64 1516.5 1207.57 1515.95 1205.6C1515.2 1202.9 1514.17 1200.24 1513.29 1197.57C1510.97 1190.5 1508.52 1183.5 1505.95 1176.51C1503.24 1169.15 1500.59 1161.75 1497.82 1154.42C1492.64 1140.65 1487.19 1127 1481.85 1113.29Z" fill="#fddf19" fill-rule="nonzero" opacity="1" stroke="none"/>
<path d="M1873.78 1132.61C1872.84 1132.54 1871.91 1132.79 1871 1133.01C1869.58 1133.36 1868.16 1133.69 1866.75 1134.05C1863.83 1134.77 1860.98 1135.73 1858.12 1136.67C1855.15 1137.64 1852.2 1138.64 1849.25 1139.64C1843.58 1141.56 1837.9 1143.42 1832.25 1145.36C1819.42 1149.76 1806.64 1154.36 1793.96 1159.17C1792.23 1159.83 1769.11 1169.06 1759.93 1172.92C1745.03 1179.19 1730.22 1185.66 1715.9 1193.2C1702.92 1200.05 1690.33 1207.58 1678.09 1215.67C1660.81 1227.1 1644.31 1239.63 1628.84 1253.42C1618.62 1262.54 1608.84 1272.17 1599.68 1282.36C1594.72 1287.88 1589.75 1293.52 1585.43 1299.58C1591.08 1294.85 1597.24 1290.69 1603.37 1286.64C1613.26 1280.11 1623.51 1274.11 1634 1268.58C1662.66 1253.46 1693.13 1241.87 1724.71 1234.55C1736.54 1231.8 1748.51 1229.72 1760.52 1228.04C1761.36 1227.93 1762.01 1228.68 1762.24 1229.92C1762.49 1231.21 1762.65 1233.03 1762.81 1234.33C1763.11 1236.75 1763.52 1239.17 1763.93 1241.58C1765.18 1248.82 1766.27 1256.06 1767.15 1263.36C1767.7 1267.9 1768.28 1272.46 1768.71 1277.01C1769.53 1285.54 1770.01 1294.11 1770.37 1302.67C1770.66 1309.54 1770.89 1316.45 1770.75 1323.33C1770.66 1327.4 1770.35 1331.46 1770 1335.51C1769.01 1346.9 1767.37 1358.21 1765.46 1369.48C1762.61 1386.33 1758.96 1403.01 1754.96 1419.61C1751.16 1435.44 1746.97 1451.21 1742.56 1466.89C1739.57 1477.51 1736.52 1488.11 1733.21 1498.64C1739.21 1487.81 1744.93 1476.82 1750.56 1465.8C1758.21 1450.81 1765.63 1435.7 1772.68 1420.42C1779.31 1406.07 1785.75 1391.62 1791.65 1376.95C1796.52 1364.86 1801.1 1352.63 1804.87 1340.14C1809.71 1324.12 1813.03 1307.63 1815.81 1291.14C1818.25 1276.63 1820.33 1262.09 1822.31 1247.51C1822.92 1242.96 1823.66 1238.38 1823.96 1233.8C1824.04 1232.7 1824.11 1231.61 1824.18 1230.51C1824.22 1229.87 1824.32 1228.89 1824.35 1228.24C1824.42 1226.97 1824.45 1222.47 1825.43 1222.43C1835.12 1222.08 1844.81 1221.96 1854.53 1222.17C1861.09 1222.31 1867.66 1222.67 1874.21 1223.11C1876.39 1223.26 1878.56 1223.25 1880.75 1223.26C1881.99 1223.27 1883.33 1223.46 1884.53 1223.05C1885.66 1222.65 1886.93 1221.87 1888.03 1221.33C1889.17 1220.76 1890.38 1220.25 1891.46 1219.58C1893.35 1218.41 1895.11 1216.99 1896.93 1215.73C1902.1 1212.15 1907.18 1208.49 1912.28 1204.8C1920.11 1199.12 1928.12 1193.66 1936.12 1188.23C1943.65 1183.12 1951.26 1178.02 1959.25 1173.64C1953.88 1169.87 1948.26 1166.48 1942.62 1163.14C1937.38 1160.04 1932.09 1156.99 1926.71 1154.14C1919.8 1150.47 1912.71 1147.14 1905.62 1143.83C1899.79 1141.1 1893.83 1138.66 1887.81 1136.39C1885.98 1135.7 1874.75 1132.68 1873.78 1132.61Z" fill="#fddf19" fill-rule="nonzero" opacity="1" stroke="none"/>
<path d="M1485.66 932.011C1474.83 938.495 1463.93 944.839 1453.31 951.858C1451.18 953.266 1449.01 954.689 1446.96 956.271C1446.07 956.953 1445.18 957.606 1444.39 958.458C1443.82 959.08 1443.1 959.712 1442.93 960.635C1442.8 961.403 1443.34 962.097 1443.62 962.788C1444.53 965.033 1445.78 967.109 1446.8 969.274C1449.78 975.584 1452.43 982.111 1455.02 988.694C1456.43 992.29 1457.88 995.869 1459.22 999.504C1467.92 1022.97 1475.74 1046.95 1483.69 1070.84C1492.32 1046.78 1500.81 1022.63 1510.17 998.976C1511.62 995.312 1513.17 991.705 1514.68 988.079C1517.77 980.683 1520.91 973.312 1524.55 966.298C1525.31 964.844 1526.18 963.471 1526.83 961.945C1527.13 961.247 1527.71 960.531 1527.59 959.765C1527.46 958.846 1526.74 958.217 1526.18 957.607C1525.41 956.77 1524.52 956.122 1523.66 955.458C1521.64 953.918 1519.54 952.571 1517.45 951.205C1507.02 944.403 1496.31 938.275 1485.66 932.011Z" fill="#fddf19" fill-rule="nonzero" opacity="1" stroke="none"/>
<path d="M1290.57 1039.27C1283.25 1042.29 1276.29 1046.03 1269.51 1049.8C1259.35 1055.44 1249.57 1061.6 1240.26 1068.18C1223.63 1079.93 1208.2 1092.88 1194.6 1107.12C1190.92 1110.97 1187.22 1114.86 1183.79 1118.87C1180.51 1122.7 1177.55 1126.71 1174.69 1130.77C1169.53 1138.11 1164.56 1145.53 1159.73 1153.02C1159.44 1153.47 1159.17 1153.92 1158.88 1154.37C1150.12 1151.14 1141.37 1147.89 1132.54 1144.87C1126.88 1142.93 1121.17 1141.06 1115.51 1139.15C1112.07 1137.98 1108.65 1136.84 1105.19 1135.71C1102.82 1134.94 1100.43 1134.15 1098.01 1133.55C1096.59 1133.2 1091.92 1132.05 1090.98 1132.12C1090.49 1132.15 1068 1138.66 1049.6 1147.83C1043.7 1150.78 1026.51 1160.05 1020.85 1163.43C1015.66 1166.53 1010.46 1169.67 1005.51 1173.15C1014.54 1178.1 1023.14 1183.95 1031.63 1189.77C1038.95 1194.79 1046.26 1199.81 1053.44 1205.02C1055.44 1206.47 1057.4 1207.97 1059.41 1209.4C1062.56 1211.62 1065.76 1213.79 1068.91 1215.99C1070.37 1217.01 1071.77 1218.15 1073.29 1219.08C1074.73 1219.98 1076.39 1220.64 1077.91 1221.4C1078.7 1221.79 1079.43 1222.27 1080.26 1222.55C1081.46 1222.97 1082.76 1222.81 1084.01 1222.8C1086.19 1222.79 1088.36 1222.76 1090.54 1222.62C1097.09 1222.17 1103.66 1221.82 1110.23 1221.68C1119.48 1221.48 1128.74 1221.62 1137.98 1221.93C1138.2 1225.76 1138.36 1229.63 1138.38 1229.96C1138.46 1231.06 1138.55 1232.14 1138.63 1233.24C1139 1238.25 1139.86 1243.24 1140.57 1248.21C1142.6 1262.42 1144.8 1276.6 1147.29 1290.74C1150.21 1307.29 1153.66 1323.83 1158.63 1339.9C1162.5 1352.4 1167.19 1364.64 1172.16 1376.74C1178.18 1391.39 1184.77 1405.79 1191.51 1420.12C1198.96 1435.96 1206.79 1451.65 1214.88 1467.18C1220.3 1477.57 1225.79 1487.93 1231.54 1498.15C1228.11 1486.97 1224.98 1475.7 1221.91 1464.43C1217.81 1449.34 1213.9 1434.16 1210.35 1418.93C1206.48 1402.3 1202.97 1385.6 1200.26 1368.74C1198.44 1357.48 1196.86 1346.15 1195.98 1334.77C1195.66 1330.73 1195.4 1326.67 1195.35 1322.62C1195.27 1315.76 1195.56 1308.9 1195.91 1302.05C1196.35 1293.51 1196.92 1284.97 1197.82 1276.46C1198.3 1271.92 1198.88 1267.39 1199.48 1262.87C1200.43 1255.58 1201.62 1248.34 1202.94 1241.12C1203.28 1239.28 1203.6 1237.45 1203.88 1235.62C1204.03 1234.69 1204.16 1233.77 1204.29 1232.83C1204.36 1232.31 1204.79 1229.96 1205.16 1227.65C1216.88 1229.31 1228.51 1231.38 1240.04 1234.05C1271.62 1241.38 1302.12 1252.96 1330.79 1268.08C1341.69 1273.84 1352.31 1280.08 1362.57 1286.93C1368.29 1290.75 1374.04 1294.67 1379.32 1299.08C1374.71 1292.63 1369.39 1286.61 1364.07 1280.74C1355.2 1270.97 1345.76 1261.71 1335.91 1252.93C1320.45 1239.14 1303.94 1226.61 1286.66 1215.18C1274.42 1207.08 1261.83 1199.56 1248.85 1192.71C1236.97 1186.45 1224.74 1180.99 1212.41 1175.71C1212.43 1175.6 1212.46 1175.5 1212.48 1175.4C1212.68 1174.26 1212.84 1173.14 1212.94 1171.99C1213.22 1168.87 1213.59 1165.76 1213.98 1162.65C1214.66 1157.12 1215.7 1151.6 1216.98 1146.15C1217.88 1142.26 1218.88 1138.32 1220.23 1134.52C1223.32 1125.78 1227.41 1117.32 1231.98 1109.05C1240.34 1093.9 1250.65 1079.58 1262.57 1066.21C1268.07 1060.04 1273.87 1054.05 1280.04 1048.33C1283.41 1045.21 1286.86 1042.11 1290.57 1039.27Z" fill="#fddf19" fill-rule="nonzero" opacity="1" stroke="none"/>
</g>
<path d="M1743.03 1811.16L1774.91 1919.81L1083.81 1976.62C1061.73 1978.44 1045.28 1997.82 1047.09 2019.91L1056.84 2138.34C1058.66 2160.43 1078.04 2176.85 1100.12 2175.03L1980 2102.66C2002.08 2100.84 2018.54 2081.46 2016.72 2059.38L2006.97 1940.97C2005.15 1918.88 1985.77 1902.46 1963.69 1904.28L1845.03 1914.03L1743.03 1811.16Z" fill="#000000" fill-rule="nonzero" filter="url(#Filter_3)" stroke="none" vectornator:shadowAngle="1.5708" vectornator:shadowColor="#191b13" vectornator:shadowOffset="3.76712" vectornator:shadowOpacity="1" vectornator:shadowRadius="50"/>
<g opacity="1">
<path d="M1243.47 2045.06C1243.69 2047.65 1243.1 2049.7 1241.7 2051.21C1240.29 2052.73 1238.93 2053.92 1237.61 2054.77C1235.69 2056.24 1233.52 2057.43 1231.08 2058.34C1228.65 2059.24 1226.05 2059.82 1223.28 2060.05L1221.21 2060.23L1220.07 2047.08L1173.29 2051.12L1176.79 2091.68L1223.71 2087.63L1222.49 2073.51L1245.47 2071.53L1246.65 2085.23C1246.87 2087.72 1246.5 2089.94 1245.55 2091.88C1244.61 2093.82 1243.24 2095.47 1241.45 2096.84C1239.66 2098.2 1237.5 2099.29 1234.97 2100.11C1232.44 2100.94 1229.74 2101.47 1226.88 2101.72L1175.53 2106.15C1172.76 2106.39 1170.1 2106.27 1167.55 2105.79C1165 2105.32 1162.72 2104.54 1160.72 2103.45C1158.72 2102.37 1157.09 2101 1155.83 2099.34C1154.58 2097.68 1153.85 2095.75 1153.66 2093.53L1150.14 2052.7C1149.96 2050.67 1150.35 2048.75 1151.31 2046.95C1152.27 2045.15 1153.65 2043.54 1155.43 2042.13C1157.21 2040.72 1159.32 2039.54 1161.75 2038.59C1164.18 2037.64 1166.82 2037.04 1169.68 2036.79L1220.9 2032.37C1227.36 2031.81 1232.63 2032.61 1236.72 2034.77C1240.81 2036.93 1243.06 2040.36 1243.47 2045.06Z" fill="#fddf19" fill-rule="nonzero" filter="url(#Filter_4)" stroke="none" vectornator:shadowAngle="1.5708" vectornator:shadowColor="#fddf19" vectornator:shadowOffset="0" vectornator:shadowOpacity="1" vectornator:shadowRadius="10.1712"/>
<path d="M1354.02 2090.75L1351.67 2063.48L1304.89 2067.51L1305.82 2078.31C1306.11 2081.73 1305.83 2084.4 1304.98 2086.33C1304.12 2088.27 1302.69 2089.97 1300.68 2091.45C1298.84 2092.81 1296.59 2093.96 1293.93 2094.89C1291.27 2095.81 1288.46 2096.4 1285.51 2096.66L1284.12 2096.78L1279.45 2042.66C1279.22 2039.98 1279.58 2037.65 1280.52 2035.66C1281.47 2033.67 1282.85 2031.97 1284.68 2030.56C1286.51 2029.15 1288.67 2028.03 1291.16 2027.21C1293.64 2026.39 1296.27 2025.87 1299.04 2025.63L1371.43 2019.38L1377.42 2088.73L1354.02 2090.75ZM1349.29 2035.93L1302.51 2039.97L1303.62 2052.84L1350.41 2048.81L1349.29 2035.93Z" fill="#fddf19" fill-rule="nonzero" filter="url(#Filter_5)" stroke="none" vectornator:shadowAngle="1.5708" vectornator:shadowColor="#fddf19" vectornator:shadowOffset="0" vectornator:shadowOpacity="1" vectornator:shadowRadius="10.1712"/>
<path d="M1491.83 2078.85L1488.15 2036.22L1463.28 2069.6L1432.78 2041L1436.46 2083.63L1413.34 2085.63L1407.36 2016.28L1411.79 2015.9C1412.99 2015.79 1414.54 2015.68 1416.43 2015.57C1418.33 2015.45 1420.34 2015.58 1422.46 2015.95C1424.59 2016.33 1426.75 2016.88 1428.95 2017.62C1431.15 2018.36 1433.21 2019.58 1435.12 2021.27L1461.08 2044.13L1482.46 2017.19C1483.96 2015.2 1485.74 2013.65 1487.78 2012.55C1489.82 2011.44 1491.88 2010.52 1493.95 2009.78C1496.03 2009.05 1498.03 2008.57 1499.97 2008.36C1501.9 2008.14 1503.47 2007.99 1504.67 2007.88L1508.96 2007.51L1514.94 2076.86L1491.83 2078.85Z" fill="#fddf19" fill-rule="nonzero" filter="url(#Filter_6)" stroke="none" vectornator:shadowAngle="1.5708" vectornator:shadowColor="#fddf19" vectornator:shadowOffset="0" vectornator:shadowOpacity="1" vectornator:shadowRadius="10.1712"/>
<path d="M1640.27 2023.79C1640.69 2028.68 1638.65 2032.55 1634.16 2035.4C1629.66 2038.26 1623.45 2040.02 1615.51 2040.71L1580.91 2043.7C1580.78 2042.22 1580.89 2040.56 1581.24 2038.72C1581.6 2036.87 1582.24 2035.21 1583.18 2033.74C1584.13 2032.26 1585.43 2030.96 1587.1 2029.84C1588.77 2028.72 1590.81 2028.06 1593.21 2027.85L1617.01 2025.8L1615.9 2012.92L1569.26 2016.95L1572.59 2055.57C1573.15 2062.03 1571.54 2066.63 1567.78 2069.37C1565.86 2070.75 1563.62 2071.73 1561.07 2072.32C1558.51 2072.91 1555.9 2073.32 1553.22 2073.56L1550.87 2073.76L1544.89 2004.41L1616.72 1998.21C1623 1997.67 1628.21 1998.48 1632.34 2000.63C1636.48 2002.78 1638.75 2006.21 1639.16 2010.92L1640.27 2023.79Z" fill="#fddf19" fill-rule="nonzero" filter="url(#Filter_7)" stroke="none" vectornator:shadowAngle="1.5708" vectornator:shadowColor="#fddf19" vectornator:shadowOffset="0" vectornator:shadowOpacity="1" vectornator:shadowRadius="10.1712"/>
<path d="M1744.73 2029.56L1700.58 2033.37L1701.7 2046.38L1771.6 2040.35C1771.82 2042.84 1771.47 2045.03 1770.56 2046.92C1769.66 2048.81 1768.29 2050.42 1766.45 2051.74C1764.61 2053.06 1762.45 2054.11 1759.96 2054.88C1757.47 2055.65 1754.74 2056.17 1751.79 2056.42L1700.58 2060.84C1697.72 2061.09 1695.01 2060.97 1692.46 2060.49C1689.91 2060.02 1687.63 2059.24 1685.63 2058.15C1683.63 2057.07 1682 2055.7 1680.75 2054.04C1679.49 2052.39 1678.76 2050.45 1678.57 2048.24L1675.07 2007.68C1674.89 2005.56 1675.27 2003.57 1676.23 2001.72C1677.19 1999.87 1678.56 1998.24 1680.34 1996.84C1682.13 1995.43 1684.23 1994.25 1686.66 1993.29C1689.09 1992.34 1691.69 1991.74 1694.45 1991.5L1745.81 1987.07C1752.17 1986.52 1757.38 1987.33 1761.42 1989.49C1765.47 1991.65 1767.69 1995.08 1768.1 1999.79L1698.2 2005.82L1699.31 2018.7L1743.47 2014.89L1744.73 2029.56Z" fill="#fddf19" fill-rule="nonzero" filter="url(#Filter_8)" stroke="none" vectornator:shadowAngle="1.5708" vectornator:shadowColor="#fddf19" vectornator:shadowOffset="0" vectornator:shadowOpacity="1" vectornator:shadowRadius="10.1712"/>
<path d="M1875.9 2045.85L1839.19 2006.62L1875.18 2003.52L1874.07 1990.65L1827.14 1994.7L1830.45 2033.04C1831.02 2039.59 1829.42 2044.19 1825.65 2046.84C1823.72 2048.21 1821.48 2049.2 1818.93 2049.79C1816.38 2050.38 1813.76 2050.79 1811.09 2051.02L1808.73 2051.23L1802.77 1982.16L1874.75 1975.94C1881.21 1975.39 1886.44 1976.19 1890.44 1978.36C1894.44 1980.52 1896.64 1983.96 1897.04 1988.66L1898.18 2001.81C1898.56 2006.24 1897.13 2009.85 1893.88 2012.64C1890.64 2015.43 1885.84 2017.24 1879.5 2018.07L1904 2043.42L1875.9 2045.85Z" fill="#fddf19" fill-rule="nonzero" filter="url(#Filter_9)" stroke="none" vectornator:shadowAngle="1.5708" vectornator:shadowColor="#fddf19" vectornator:shadowOffset="0" vectornator:shadowOpacity="1" vectornator:shadowRadius="10.1712"/>
</g>
</g>
</svg>
